<?xml version="1.0" encoding="UTF-8"?>
<!-- Created with Inkscape (http://www.inkscape.org/) -->
<svg width="108" height="64" version="1.1" viewBox="0 0 28.57 16.93" xmlns="http://www.w3.org/2000/svg">
 <g transform="matrix(.9037 -.05043 -.01776 .9076 -46.84 -72.61)" stroke-width=".2215">
  <path d="m57.22 91.99q-0.3898 0.04721-0.7796-0.0033-0.3809-0.05131-0.691-0.253-0.3012-0.2027-0.4961-0.5778-0.1949-0.3751-0.1949-0.9775 0-0.2215 0.03543-0.5358 0.03543-0.3144 0.1329-0.654 0.1063-0.3407 0.2835-0.6811 0.186-0.3503 0.4784-0.6426 0.2924-0.2923 0.7087-0.5022t0.9922-0.2796q0.4607-0.05579 0.7796 0.01189 0.3189 0.06769 0.5138 0.2301 0.1949 0.1536 0.2835 0.382 0.08859 0.2285 0.08859 0.5031 0 0.4075-0.1683 0.7114-0.1595 0.3028-0.4252 0.5299-0.2569 0.2172-0.5758 0.3621t-0.629 0.2445q-0.3101 0.0907-0.5758 0.1406-0.2569 0.03997-0.3987 0.05713 0 0.1683 0.0443 0.3313 0.05316 0.153 0.1506 0.2653 0.09745 0.1122 0.2569 0.1726 0.1595 0.06044 0.3898 0.03256 0.2303-0.02787 0.3544-0.1138 0.1329-0.09583 0.2126-0.1941 0.07973-0.1071 0.1329-0.1844 0.06201-0.08725 0.1595-0.09904 0.0443-5e-3 0.1506 0.0084 0.1152 0.0042 0.2303 0.06069 0.1152 0.05692 0.2038 0.1702 0.08859 0.1133 0.08859 0.3082 0 0.2569-0.1595 0.4623t-0.4164 0.3516q-0.2481 0.1452-0.5581 0.2359-0.3101 0.09071-0.6024 0.1261zm0.1683-3.892q-0.1949 0.02361-0.3366 0.1559-0.1329 0.1224-0.2303 0.3025-0.08859 0.1791-0.1417 0.3893-0.0443 0.2091-0.07088 0.3984 0.5493-0.07537 0.8859-0.2933 0.3455-0.219 0.3455-0.5468 0-0.1772-0.1152-0.305-0.1063-0.1289-0.3366-0.101z" style="white-space:pre"/>
  <path d="m60.92 91.53q-0.5493 0.06655-0.7885-0.1969-0.2392-0.2634-0.2392-0.9367 0-0.1063 0.0089-0.2668 0.01772-0.1616 0.03543-0.4118 0.02658-0.2601 0.06201-0.6365 0.03543-0.3764 0.07088-0.9122 0.0443-0.5369 0.08859-1.26 0.05316-0.724 0.1063-1.678 0.0089-0.196 0.0443-0.2357 0.02658-0.0298 0.1417-0.04375l0.3455-0.04184q0.2658-0.03219 0.443 0.0084 0.1772 0.04056 0.2835 0.134 0.1063 0.09344 0.1506 0.2298 0.0443 0.1275 0.0443 0.2781 0 0.1772-0.02658 0.517-0.01772 0.3299-0.05316 0.7506-0.03543 0.4207-0.07088 0.8768-0.03543 0.4561-0.07088 0.8768-0.03543 0.4118-0.06201 0.7428-0.01772 0.3299-0.01772 0.4983 0 0.2303 0.07973 0.3181 0.08859 0.08672 0.186 0.1192 0.09745 0.02361 0.1772 0.03172 0.08859-0.0017 0.08859 0.04244 0 0.1949-0.0443 0.3952-0.0443 0.1914-0.1595 0.3648-0.1152 0.1646-0.3189 0.2867-0.1949 0.1122-0.505 0.1497z" style="white-space:pre"/>
 </g>
 <g stroke-width=".2628">
  <path d="m7.036 9.472-0.5143 5.921q-0.01361 0.16-0.1188 0.1786l-0.5787 0.1024q-0.5892 0.1043-0.8372-0.08294-0.248-0.1872-0.2395-0.6194 0.00308-0.1581 0.0198-0.4762 0.02724-0.3199 0.06705-0.7472 0.04002-0.4378 0.08128-0.9388 0.05198-0.5134 0.104-1.027 0.05219-0.5239 0.09366-1.035 0.05198-0.5134 0.092-0.9512l-1.683 0.2979q-0.1157 0.02048-0.1128-0.1271l0.04312-0.5959q0.0132-0.1389 0.04724-0.271 0.04476-0.1445 0.131-0.2648 0.08624-0.1203 0.2137-0.2059 0.138-0.08745 0.3274-0.121l4.703-0.8324q0.06313-0.01118 0.1151 0.01114 0.05199 0.02231 0.05034 0.1066l-0.05426 0.6293q-0.02724 0.3199-0.189 0.5482-0.151 0.2158-0.6245 0.2996z" style="white-space:pre"/>
  <path d="m10.88 14.88q-0.726 0.1285-1.206 0.01391-0.4693-0.127-0.7464-0.4351-0.2771-0.3081-0.3835-0.7619-0.1062-0.4644-0.09552-1.013 0.01238-0.6324 0.1714-1.259 0.1698-0.6393 0.5473-1.179 0.3775-0.5395 0.9828-0.9303 0.616-0.4031 1.521-0.5633 1.326-0.2346 1.881 0.3183 0.5661 0.5406 0.5432 1.711-0.0064 0.3268-0.06684 0.7366-0.04972 0.3975-0.1941 0.8117-0.1339 0.4124-0.3726 0.8222-0.2282 0.408-0.581 0.7541-0.3528 0.3461-0.8506 0.6022-0.4873 0.2543-1.15 0.3716zm0.5847-4.694q-0.3998 0.07076-0.6459 0.3244-0.2354 0.2412-0.3674 0.5587-0.1213 0.3051-0.1698 0.6393-0.03776 0.3218-0.04209 0.5432-0.01362 0.6957 0.2009 0.9833 0.2146 0.2877 0.6249 0.215 0.3683-0.06517 0.6043-0.338 0.2465-0.2747 0.3792-0.6238 0.1432-0.351 0.1923-0.7168 0.05962-0.3677 0.06437-0.6101 0.01031-0.527-0.1838-0.7868-0.1834-0.2722-0.6569-0.1884z" style="white-space:pre"/>
  <path d="m17.86 7.556-0.5143 5.921q-0.01361 0.16-0.1188 0.1786l-0.5787 0.1024q-0.5892 0.1043-0.8372-0.08292-0.248-0.1872-0.2395-0.6194 0.0031-0.1581 0.01981-0.4762 0.02724-0.3199 0.06705-0.7472 0.04002-0.4378 0.08128-0.9388 0.05198-0.5134 0.104-1.027 0.05219-0.5239 0.09366-1.035 0.05198-0.5134 0.092-0.9512l-1.683 0.2979q-0.1157 0.02048-0.1128-0.1271l0.04312-0.5959q0.0132-0.1389 0.04724-0.271 0.04476-0.1445 0.131-0.2648 0.08624-0.1203 0.2137-0.2059 0.138-0.08745 0.3274-0.121l4.703-0.8324q0.06313-0.01118 0.1151 0.01114 0.05199 0.02231 0.05034 0.1066l-0.05426 0.6293q-0.02724 0.3199-0.189 0.5482-0.151 0.2158-0.6245 0.2996z" style="white-space:pre"/>
 </g>
 <path transform="matrix(.2646 0 0 .2646 -7.8e-5 0)" d="m87.63 25.59c-0.7859 0.009298-1.648 0.0974-2.588 0.2637-2.28 0.4035-4.196 1.113-5.748 2.129-1.525 0.9845-2.764 2.156-3.715 3.516-0.9513 1.359-1.641 2.844-2.068 4.455-0.4008 1.58-0.6172 3.166-0.6484 4.76-0.02703 1.381 0.09362 2.656 0.3613 3.826 0.2682 1.144 0.7511 2.105 1.449 2.881 0.6981 0.7763 1.64 1.324 2.822 1.645 1.21 0.2888 2.727 0.271 4.557-0.05273 1.403-0.2483 2.649-0.6195 3.74-1.111 4.833-1.643 14.22-8.056 17.12-14.86-2.484-2.701-7.771-6.973-13.53-7.314-0.5351-0.09512-1.12-0.1403-1.756-0.1328zm-2.541 5.607c0.7577 0.009811 1.31 0.2708 1.656 0.7852 0.4891 0.6545 0.7213 1.647 0.6953 2.975-0.01194 0.6109-0.09389 1.378-0.2441 2.305-0.1237 0.9218-0.3658 1.825-0.7266 2.709-0.3342 0.8796-0.8124 1.667-1.434 2.359-0.5947 0.6875-1.355 1.113-2.283 1.277-1.034 0.183-1.821-0.0877-2.361-0.8125-0.5406-0.7248-0.7941-1.964-0.7598-3.717 0.01091-0.5577 0.06306-1.242 0.1582-2.053 0.1222-0.8421 0.3369-1.647 0.6426-2.416 0.3327-0.8 0.7956-1.505 1.389-2.113 0.6201-0.6391 1.434-1.046 2.441-1.225 0.2982-0.05279 0.5736-0.07749 0.8262-0.07422z" stroke-width=".9933" style="white-space:pre"/>
</svg>
